<svg width="133" height="27" viewBox="0 0 133 27" fill="none" xmlns="http://www.w3.org/2000/svg">
    <path d="M77.6151 5.70459C82.2635 5.70459 86.3552 9.05275 86.3552 13.9794C86.3552 18.9061 82.2635 22.2875 77.6151 22.2875C72.9667 22.2875 68.875 18.9726 68.875 13.9794C68.875 8.98628 72.9958 5.70459 77.6151 5.70459ZM77.6151 18.3204C79.9081 18.3204 81.8605 16.4594 81.8605 13.9794C81.8605 11.4995 79.9081 9.6717 77.6151 9.6717C75.3221 9.6717 73.3697 11.4995 73.3697 13.9794C73.3697 16.4594 75.3553 18.3204 77.6151 18.3204Z" fill="#0E1414"/>
    <path d="M87.5703 5.70459H92.1896V8.21363C93.5231 6.35262 95.1971 5.70459 97.1205 5.70459C101.586 5.70459 102.795 9.26876 102.795 13.2982V21.9469H98.1756V13.3896C98.1756 11.1879 97.3697 9.51385 95.2304 9.51385C93.091 9.51385 92.1938 11.217 92.1938 13.4186V21.9427H87.5745V5.70459H87.5703Z" fill="#0E1414"/>
    <path d="M109.507 5.74242H113.911V9.3689H109.507V17.1162C109.507 17.7975 109.786 18.5119 110.687 18.5119C111.588 18.5119 111.896 17.7684 111.896 17.0248C111.896 16.5596 111.771 15.9074 111.68 15.6623H115.34C115.618 16.2522 115.713 16.9957 115.713 17.5524C115.713 19.9077 114.164 22.2963 110.413 22.2963C107.621 22.2963 104.896 21.3035 104.896 16.6842L104.867 2.14502H109.516V5.74658L109.507 5.74242Z" fill="#0E1414"/>
    <path d="M4.6193 5.70459H0V21.9469H4.6193V5.70459Z" fill="#0E1414"/>
    <path d="M18.7555 5.70459C17.2351 5.70459 14.9421 6.04522 13.7332 8.37149C12.9273 6.75972 11.2823 5.70459 8.86469 5.70459C7.78048 5.70459 6.93306 6.03691 6.15625 6.58109V9.74232C6.39718 9.62601 6.76274 9.518 7.25292 9.518C9.30086 9.518 9.91981 11.2212 9.91981 13.3937V21.9511H14.5059V13.427C14.5059 11.2876 15.1248 9.52216 17.1395 9.52216C19.1543 9.52216 19.8064 11.2253 19.8064 13.3979V21.9552H24.4257V13.3065C24.4257 9.27707 23.2169 5.7129 18.7513 5.7129L18.7555 5.70459Z" fill="#0E1414"/>
    <path d="M48.1974 5.70459H43.5781V21.9469H48.1974V5.70459Z" fill="#0E1414"/>
    <path d="M62.3258 5.70459C60.8054 5.70459 58.5124 6.04522 57.3035 8.37149C56.4977 6.75972 54.8527 5.70459 52.435 5.70459C51.3508 5.70459 50.5034 6.03691 49.7266 6.58109V9.74232C49.9675 9.62601 50.3331 9.518 50.8232 9.518C52.8712 9.518 53.4901 11.2212 53.4901 13.3937V21.9511H58.0762V13.427C58.0762 11.2876 58.6951 9.52216 60.7099 9.52216C62.7246 9.52216 63.3767 11.2253 63.3767 13.3979V21.9552H67.996V13.3065C67.996 9.27707 66.7872 5.7129 62.3216 5.7129L62.3258 5.70459Z" fill="#0E1414"/>
    <path d="M31.71 13.0988L28.4865 5.70459H23.8672L29.3505 18.4077L31.71 13.0988Z" fill="#0E1414"/>
    <path d="M37.2547 5.70459L26.9609 28.8592H31.5927L41.8864 5.70459H37.2547Z" fill="#0E1414"/>
    <path d="M122.819 13.0988L119.596 5.70459H114.977L120.464 18.4077L122.819 13.0988Z" fill="#0E1414"/>
    <path d="M128.368 5.70459L118.078 28.8592H122.71L132.999 5.70459H128.368Z" fill="#0E1414"/>
</svg>
