<svg width="180" height="180" viewBox="0 0 180 180" fill="none" xmlns="http://www.w3.org/2000/svg">
<circle cx="90" cy="90" r="90" fill="black"/>
<path d="M50.0959 45H25.3125V132.143H50.0959V45Z" fill="white"/>
<path d="M125.945 45C117.788 45 105.485 46.8276 98.9995 59.3084C94.6758 50.6609 85.8501 45 72.8789 45C67.0619 45 62.5154 46.783 58.3477 49.7026V66.6631C59.6403 66.0391 61.6016 65.4596 64.2315 65.4596C75.2191 65.4596 78.5399 74.5974 78.5399 86.2536V132.165H103.145V86.4319C103.145 74.954 106.466 65.4819 117.275 65.4819C128.084 65.4819 131.583 74.6197 131.583 86.2759V132.188H156.367V85.7856C156.367 64.167 149.881 45.0446 125.922 45.0446L125.945 45Z" fill="white"/>
</svg>
